<svg id="visual" viewBox="0 0 900 360" width="900" height="360" xmlns="http://www.w3.org/2000/svg" xmlns:xlink="http://www.w3.org/1999/xlink" version="1.1"><rect x="0" y="0" width="900" height="360" fill="#6600FF"></rect><path d="M0 235L37.5 239.8C75 244.7 150 254.3 225 263.7C300 273 375 282 450 276.7C525 271.3 600 251.7 675 245.2C750 238.7 825 245.3 862.5 248.7L900 252L900 361L862.5 361C825 361 750 361 675 361C600 361 525 361 450 361C375 361 300 361 225 361C150 361 75 361 37.5 361L0 361Z" fill="#FFFFFF" stroke-linecap="round" stroke-linejoin="miter"></path></svg>