<svg id="visual" viewBox="0 0 300 200" width="300" height="200" xmlns="http://www.w3.org/2000/svg" xmlns:xlink="http://www.w3.org/1999/xlink" version="1.1"><rect x="0" y="0" width="300" height="200" fill="#ffffff"></rect><path d="M0 79L12.5 85.7C25 92.3 50 105.7 75 106.7C100 107.7 125 96.3 150 88.7C175 81 200 77 225 75.8C250 74.7 275 76.3 287.5 77.2L300 78L300 0L287.5 0C275 0 250 0 225 0C200 0 175 0 150 0C125 0 100 0 75 0C50 0 25 0 12.5 0L0 0Z" fill="#6600FF" stroke-linecap="round" stroke-linejoin="miter"></path></svg>